<svg xmlns="http://www.w3.org/2000/svg" width="25.464" height="25.465" viewBox="0 0 25.464 25.465"><g transform="translate(0.501 0.501)"><path d="M63.5-5333.369H49.633a5.306,5.306,0,0,1-5.3-5.3v-13.863a5.307,5.307,0,0,1,5.3-5.3H63.5a5.307,5.307,0,0,1,5.3,5.3v13.863A5.306,5.306,0,0,1,63.5-5333.369Zm-6.972-20.537c-4.911,0-8.906,3.243-8.906,7.229a6.493,6.493,0,0,0,2.119,4.693,9.547,9.547,0,0,0,5.328,2.438c.3.065.687.194.785.44a1.718,1.718,0,0,1,.028.805s-.1.628-.126.761l0,.021a.656.656,0,0,0,.046.5.3.3,0,0,0,.239.092,1.327,1.327,0,0,0,.489-.127,28.467,28.467,0,0,0,7-5.171,6.467,6.467,0,0,0,1.909-4.447C65.433-5350.663,61.437-5353.906,56.525-5353.906Z" transform="translate(-44.333 5357.833)" stroke="rgba(0,0,0,0)" stroke-miterlimit="10" stroke-width="1"/><g transform="translate(6.207 9.23)"><path d="M376.119,251.483h-.625a.173.173,0,0,0-.173.173v3.881a.173.173,0,0,0,.173.173h.625a.174.174,0,0,0,.174-.173v-3.881a.174.174,0,0,0-.174-.173" transform="translate(-371.944 -251.483)"/><path d="M381.209,251.483h-.625a.173.173,0,0,0-.173.173v2.305l-1.779-2.4a.12.12,0,0,0-.014-.018h0l-.011-.011,0,0-.009-.008,0,0-.009-.006-.005,0-.009-.005-.005,0-.01,0-.005,0-.011,0h-.006l-.01,0h-.656a.173.173,0,0,0-.173.173v3.881a.173.173,0,0,0,.173.173h.625a.174.174,0,0,0,.174-.173v-2.3l1.781,2.4a.167.167,0,0,0,.044.043h0l.011.007.005,0,.008,0,.009,0,.005,0,.011,0h0a.165.165,0,0,0,.045.006h.625a.173.173,0,0,0,.173-.173v-3.881a.173.173,0,0,0-.173-.173" transform="translate(-372.733 -251.483)"/><path d="M372.924,254.738h-1.7v-3.082a.173.173,0,0,0-.173-.173h-.625a.174.174,0,0,0-.174.173v3.881h0a.173.173,0,0,0,.049.12l0,0,0,0a.172.172,0,0,0,.119.048h2.5a.173.173,0,0,0,.173-.173v-.625a.174.174,0,0,0-.173-.174" transform="translate(-370.255 -251.483)"/><path d="M386.809,252.455a.174.174,0,0,0,.173-.174v-.625a.173.173,0,0,0-.173-.173h-2.5a.176.176,0,0,0-.121.049v0l0,0a.172.172,0,0,0-.048.119h0v3.881h0a.173.173,0,0,0,.049.12l0,0,0,0a.173.173,0,0,0,.12.049h2.5a.173.173,0,0,0,.173-.173v-.625a.174.174,0,0,0-.173-.174h-1.7v-.656h1.7a.173.173,0,0,0,.173-.173v-.625a.173.173,0,0,0-.173-.173h-1.7v-.656Z" transform="translate(-374.883 -251.483)"/></g></g></svg>