<svg xmlns="http://www.w3.org/2000/svg" width="24.969" height="20.807" viewBox="0 0 24.969 20.807"><path d="M888.216,145.123a10.071,10.071,0,0,1-3.255,1.273,5.053,5.053,0,0,0-3.739-1.657,5.189,5.189,0,0,0-5.121,5.253,5.347,5.347,0,0,0,.132,1.2,14.42,14.42,0,0,1-10.559-5.49,5.347,5.347,0,0,0-.693,2.644,5.286,5.286,0,0,0,2.279,4.371,5.029,5.029,0,0,1-2.321-.655v.064a5.222,5.222,0,0,0,4.111,5.151,4.883,4.883,0,0,1-1.35.185,5.006,5.006,0,0,1-.965-.093,5.143,5.143,0,0,0,4.785,3.646,10.116,10.116,0,0,1-6.362,2.249,10.27,10.27,0,0,1-1.222-.072,14.259,14.259,0,0,0,7.852,2.358c9.424,0,14.575-8,14.575-14.945,0-.229,0-.457-.013-.681A10.509,10.509,0,0,0,888.9,147.2a10.032,10.032,0,0,1-2.941.827A5.243,5.243,0,0,0,888.216,145.123Z" transform="translate(-863.936 -144.738)"/></svg>