<svg xmlns="http://www.w3.org/2000/svg" xmlns:xlink="http://www.w3.org/1999/xlink" width="176.573" height="94.621" viewBox="0 0 176.573 94.621"><defs><clipPath id="a"><rect width="176.573" height="94.621" fill="none"/></clipPath></defs><g clip-path="url(#a)"><path d="M113.524,7.382A6.9,6.9,0,0,0,109.49.937,10.442,10.442,0,0,0,105.411,0H97.3V26.229h4.437V14.764h3.674c.18,0,8.113-.038,8.113-7.382m-4.482,0c0,1.761-.538,2.96-1.7,3.56a5.137,5.137,0,0,1-1.928.524h-3.674V3.3h3.674a4.582,4.582,0,0,1,1.838.487c1.21.6,1.793,1.761,1.793,3.6" transform="translate(-49.814)"/><path d="M63.9,8.206v-1.4a7.574,7.574,0,0,0-.986-3.434C61.616,1.2,59.062,0,55.79,0s-5.826,1.2-7.126,3.372a7,7,0,0,0-.986,3.216v.84c0,.187.586,5.372,7.623,7.433,3.9,1.162,4.12,3.717,4.12,3.9v.78a3.474,3.474,0,0,1-3.63,3.424c-3.182,0-3.675-3.248-3.675-3.81V18.023H47.678V19.16a8.318,8.318,0,0,0,.986,3.7c1.3,2.173,3.854,3.372,7.126,3.372s5.826-1.2,7.126-3.372a7.247,7.247,0,0,0,.986-3.311v-.817c0-.187-.09-5.089-7.395-7.15-3.854-1.086-4.347-3.851-4.392-4.15v-.84A3.457,3.457,0,0,1,55.79,3.3a3.533,3.533,0,0,1,3.63,3.509v1.4Z" transform="translate(-24.409 0)"/><path d="M159.489,7.382A6.9,6.9,0,0,0,155.456.937,10.442,10.442,0,0,0,151.377,0h-8.111V26.229H147.7V14.764h3.674c.18,0,8.112-.038,8.112-7.382m-4.482,0c0,1.761-.538,2.96-1.7,3.56a5.136,5.136,0,0,1-1.927.524H147.7V3.3h3.674a4.579,4.579,0,0,1,1.837.487c1.21.6,1.793,1.761,1.793,3.6" transform="translate(-73.346)"/><path d="M163.943,39.215l4.573-.024L161.441,25l-4.034,1.625Z" transform="translate(-80.586 -12.8)"/><path d="M239.288,0V16.487L231.946,0h-5.378V26.229H231V9.742l7.343,16.487h5.423V0Z" transform="translate(-115.993 0)"/><path d="M287.56,26.23c3.272,0,6.229-1.2,7.529-3.373a6.924,6.924,0,0,0,.986-3.184V11.936h-7.967v3.3h3.486v4.44a3.866,3.866,0,0,1-4.034,3.3,4.189,4.189,0,0,1-4.25-3.3V6.558a4.167,4.167,0,0,1,4.25-3.26,3.843,3.843,0,0,1,4.034,3.26V8.207h4.482V6.558a6.925,6.925,0,0,0-.986-3.185C293.789,1.2,290.832,0,287.56,0s-6.4,1.2-7.7,3.372a6.921,6.921,0,0,0-.986,3.185V19.673a6.92,6.92,0,0,0,.986,3.184c1.3,2.174,4.429,3.373,7.7,3.373" transform="translate(-142.771 -0.001)"/><path d="M198.707,4.792a2.4,2.4,0,1,0-2.4-2.4,2.4,2.4,0,0,0,2.4,2.4" transform="translate(-100.504)"/><rect width="4.353" height="19.744" transform="translate(96.028 6.487)"/><line y1="12.889" x2="12.889" transform="translate(89.335 37.224)" fill="none" stroke="#000" stroke-miterlimit="10" stroke-width="1.417"/><line y1="12.889" x2="12.889" transform="translate(74.349 52.209)" fill="none" stroke="#000" stroke-miterlimit="10" stroke-width="1.417"/><line x1="12.889" y1="12.889" transform="translate(74.349 37.224)" fill="none" stroke="#000" stroke-miterlimit="10" stroke-width="1.417"/><line x1="12.889" y1="12.889" transform="translate(89.335 52.209)" fill="none" stroke="#000" stroke-miterlimit="10" stroke-width="1.417"/><path d="M15.111,164.384c0,4.258-2.367,7.355-6.3,7.355s-6.292-3.1-6.292-7.355,2.368-7.351,6.292-7.351,6.3,3.092,6.3,7.351m2.519,0c0-3.9-2.069-9.515-8.815-9.515S0,160.485,0,164.384s2.069,9.523,8.815,9.523,8.815-5.619,8.815-9.523" transform="translate(0 -79.286)"/><path d="M62.766,173.925H60.2l-4.718-18.082h2.649l3.373,14.709h.049l4.055-14.709h2.664l4.059,14.709h.05l3.38-14.709h2.692l-4.76,18.082H71.124l-4.131-14.988h-.045Z" transform="translate(-28.406 -79.785)"/><path d="M137.345,155.843h2.366v18.082h-2.743l-9.195-14.605h-.052v14.605h-2.362V155.843h2.89l9.046,14.608h.049Z" transform="translate(-64.178 -79.785)"/><path d="M183.353,157.935h4.565c3.324,0,5.408,2.29,5.408,6.85s-2.058,7.049-5.228,7.049h-4.745Zm-2.44,15.99h7.229c5.943,0,7.709-5.24,7.709-9.295,0-5.209-2.9-8.787-7.608-8.787h-7.33Z" transform="translate(-92.62 -79.785)"/><path d="M235.882,166.5l2.9-7.96h.05l2.672,7.96Zm6.5,2.162,1.788,5.264h2.665l-6.544-18.082h-2.771l-6.8,18.082h2.519l1.889-5.264Z" transform="translate(-118.119 -79.785)"/><path d="M287.313,173.925h-2.447v-7.277l-6.825-10.805h2.845l5.19,8.688,5.188-8.688h2.874l-6.825,10.805Z" transform="translate(-142.345 -79.785)"/><path d="M343.911,160.631c-.128-2.795-2.444-3.677-4.486-3.677-1.534,0-4.13.431-4.13,3.171,0,1.54,1.083,2.044,2.14,2.294l5.161,1.186c2.345.554,4.11,1.961,4.11,4.834,0,4.279-3.98,5.468-7.079,5.468-3.35,0-4.654-1.01-5.464-1.74a5.578,5.578,0,0,1-1.844-4.584h2.294c0,3.274,2.675,4.23,4.988,4.23,1.765,0,4.733-.45,4.733-3.047,0-1.889-.883-2.49-3.852-3.2l-3.7-.854c-1.18-.276-3.85-1.107-3.85-4.256,0-2.819,1.833-5.588,6.218-5.588,6.323,0,6.953,3.772,7.05,5.762Z" transform="translate(-170.133 -79.286)"/></g></svg>