<svg xmlns="http://www.w3.org/2000/svg" width="83.135" height="29.266" viewBox="0 0 83.135 29.266"><g transform="translate(1005 349.998)"><path d="M48.019,16.207a.046.046,0,0,1,.014.066c-.068.04-.167.04-.2.127l.012.594.021.007h1.473l.427-.407a.116.116,0,0,1,.132,0l.921.912a.1.1,0,0,1,.007.087l-.033.021a3.008,3.008,0,0,0-.728.026c-.233.1-.453.221-.679.334h-.028V17.9a6.312,6.312,0,0,0,.121-.627l-.021-.019-4.168.006c-.019.08.014.167,0,.26a.867.867,0,0,1-.4.754.556.556,0,0,1-.493.026.619.619,0,0,1-.36-.46.5.5,0,0,1,.212-.459,1.626,1.626,0,0,0,.5-.408,1.767,1.767,0,0,0,.181-.373h.033a3.486,3.486,0,0,1,.247.4h1.574c.026-.321,0-.66.026-.98.094-.154.26-.007.387-.007Z" transform="translate(-989.011 -343.965)"/><path d="M57.778,16.209a.063.063,0,0,1,.014.061c-.068.059-.174.04-.214.125l-.007.854c.294.127.434-.227.653-.327.147,0,.227.153.334.219l.394.347c.006.019.019.047.006.059-.087.081-.24.047-.294.174a11.16,11.16,0,0,1-1.046,1.461V19.2a1.793,1.793,0,0,1,1.313.706.563.563,0,0,1-.054.627.518.518,0,0,1-.487.174.534.534,0,0,1-.38-.434,1.3,1.3,0,0,0-.407-.907c-.026.007-.033.034-.026.061l-.007,3.188a.192.192,0,0,1-.12.16,3.654,3.654,0,0,1-.707.014c-.073-.028-.087-.1-.1-.167V20.163c-.068-.014-.114.061-.174.087a3.721,3.721,0,0,1-1,.58c-.014-.007-.04-.007-.033-.026a13.738,13.738,0,0,0,1.88-2.521,4.833,4.833,0,0,0,.36-.735l-.006-.019-1.814-.021a.459.459,0,0,1-.12-.219c.252-.033.586-.014.879-.021l.021-.026.012-1.194a.17.17,0,0,1,.087-.066c.354.052.693.146,1.041.226" transform="translate(-984.699 -343.953)"/><path d="M60.432,16.384c.021.014.033.054.007.066-.068.061-.174.054-.207.141l.007,1.727a1.171,1.171,0,0,0,.373.007l.506-.434a.153.153,0,0,1,.141.028l.653.573c.007.019.021.047.007.066l-.061.028-1.613.006-.007.04.007,3.634a1.121,1.121,0,0,0,.372.007l.561-.627a.124.124,0,0,1,.134.007l.78.8a.06.06,0,0,1-.047.066l-4.521.007a.423.423,0,0,1-.134-.233l.059-.014,1.721-.014.006-.092L59.173,18.6l-.04-.019L57.9,18.578a.644.644,0,0,1-.106-.227l.08-.019h1.287l.014-.021V16.25a.249.249,0,0,1,.106-.113c.393.073.78.146,1.154.247" transform="translate(-983.959 -343.895)"/><path d="M55.577,19.977c-.127,0-.2.127-.3.193H51.322l-.014-.026v-.467l.021-.021,5.061-.012.061-.028c.026-.012.007-.047,0-.059-.221-.2-.448-.42-.681-.613a.125.125,0,0,0-.12.012l-.5.427-3.794.014-.033-.014a2.477,2.477,0,0,1,.007-.58l3.047-.007c.04.061.021.134.033.2a.168.168,0,0,0,.134.087,7.92,7.92,0,0,0,.794-.127.239.239,0,0,0,.113-.139l.021-1.48c.04-.094.153-.068.219-.114a.063.063,0,0,0-.019-.073l-.8-.639-.08-.007c-.16.094-.226.26-.353.387l-1.562-.007-.006-.021a5.184,5.184,0,0,1,.44-.62c.066-.026.181-.007.207-.094a.068.068,0,0,0-.04-.052c-.367-.087-.733-.181-1.107-.254a.094.094,0,0,0-.094.073l-.087.94-.019.034-.82.006c-.321-.066-.62-.186-.941-.233-.066.033-.081.12-.106.181l-.007,3.7.047.059a6.045,6.045,0,0,0,.866,0c.088-.019.061-.12.114-.172l.754-.007.019.019v1.2l-.012.047-1.127.007-.047-.014v-.52c.014-.061.134-.113.054-.181-.294-.08-.6-.134-.9-.207-.068-.007-.167-.047-.194.04v1.821a.152.152,0,0,0,.087.094l.74.012.094-.04c.2-.153.073-.48.107-.726l.019-.019,2.8-.014.033.014c.021.08-.012.172.021.247a.151.151,0,0,0,.127.08l.7-.094a.224.224,0,0,0,.139-.141l.021-.94c0-.073.134-.134.047-.207l-.947-.221c-.033,0-.08.014-.087.054l-.014.928-.019.026-.62.007-.021-.021V20.47l.014-.047h2.127l.061.012.019.408a4.521,4.521,0,0,1-.12,1.24.692.692,0,0,1-.44.353,4.138,4.138,0,0,1-.907.04.021.021,0,0,0,0,.033,2.816,2.816,0,0,0,.473.127c.267.033.367.373.634.4a1.088,1.088,0,0,0,.893-.233,2.829,2.829,0,0,0,.488-1.974l.033-.061c.059-.087.159-.113.178-.212-.311-.214-.638-.394-.972-.58m-4.248-2.807c.066-.033.141-.007.214-.021l2.847.007a3.913,3.913,0,0,1,.007.54l-.021.019-3.04-.006a2.843,2.843,0,0,1-.007-.54m0,.813.094-.007,1.753-.007,1.214.007L54.4,18l-.007.533-3.061.006a3.034,3.034,0,0,1,0-.56" transform="translate(-986.805 -344.007)"/><path d="M49.555,17.486c.24.2.487.407.7.62a.043.043,0,0,1-.04.054l-.174.012-2.234.007-.012.087V19.46l.033.026.82-.006.5-.427c.066-.04.12.014.174.047l.626.56a.047.047,0,0,1-.04.068l-2.094.019-.019.04V21.86l.026.014,1.553-.007.554-.627a.127.127,0,0,1,.12-.007l.78.813c.026.047-.026.068-.054.074l-6.52-.014-.1-.2.033-.028,2.541-.012.019-.021v-2.08l-.033-.028-1.68-.012a.8.8,0,0,1-.107-.207l.028-.021,1.779-.014.014-.019V18.193l-.026-.021L44.88,18.16a.881.881,0,0,1-.106-.221l.181-.014,3.98-.007.514-.433a.1.1,0,0,1,.106,0" transform="translate(-988.966 -343.39)"/><path d="M48.4,19.84a.592.592,0,0,1,.021.566.552.552,0,0,1-.58.24.515.515,0,0,1-.34-.313c-.054-.347-.087-.733-.42-.926-.014-.007-.026-.007-.033-.021.026-.054.106-.033.167-.047a1.444,1.444,0,0,1,1.187.5" transform="translate(-987.873 -342.684)"/><g transform="translate(-1004.967 -349.998)"><path d="M22.1,4.718A4.407,4.407,0,0,0,19.527.6,6.659,6.659,0,0,0,16.919,0H11.736V16.763h2.836V9.435h2.347c.116,0,5.185-.023,5.185-4.718m-2.864,0a2.3,2.3,0,0,1-1.089,2.275,3.288,3.288,0,0,1-1.232.335H14.572V2.107h2.347a2.934,2.934,0,0,1,1.176.311,2.282,2.282,0,0,1,1.145,2.3" transform="translate(3.74 0)"/><path d="M10.875,5.244V4.35a4.837,4.837,0,0,0-.63-2.194A5.024,5.024,0,0,0,5.692,0,5.027,5.027,0,0,0,1.137,2.156,4.474,4.474,0,0,0,.507,4.21v.536c0,.12.375,3.433,4.872,4.751,2.492.741,2.632,2.375,2.632,2.495v.5a2.22,2.22,0,0,1-2.32,2.187,2.442,2.442,0,0,1-2.35-2.434v-.726H.507v.726a5.323,5.323,0,0,0,.63,2.362,5.027,5.027,0,0,0,4.555,2.156,5.024,5.024,0,0,0,4.554-2.156,4.636,4.636,0,0,0,.63-2.116v-.522c0-.12-.058-3.253-4.726-4.569A3.5,3.5,0,0,1,3.342,4.747V4.21a2.21,2.21,0,0,1,2.35-2.1A2.258,2.258,0,0,1,8.011,4.35v.894Z" transform="translate(-0.507)"/><path d="M32.506,4.718A4.407,4.407,0,0,0,29.929.6,6.655,6.655,0,0,0,27.322,0H22.139V16.763h2.835V9.435h2.348c.114,0,5.183-.023,5.183-4.718m-2.864,0a2.306,2.306,0,0,1-1.089,2.275,3.29,3.29,0,0,1-1.231.335H24.974V2.107h2.348a2.93,2.93,0,0,1,1.174.311,2.282,2.282,0,0,1,1.145,2.3" transform="translate(7.675 0)"/><path d="M29.516,14.741l2.923-.015L27.917,5.658,25.339,6.7Z" transform="translate(8.885 2.14)"/><path d="M49.119,0V10.536L44.427,0H40.99V16.762h2.835V6.225l4.693,10.536h3.465V0Z" transform="translate(14.804 0)"/><path d="M58.377,16.762c2.091,0,3.982-.766,4.813-2.156a4.422,4.422,0,0,0,.631-2.036V7.627H58.729V9.734h2.226v2.836a2.468,2.468,0,0,1-2.577,2.107,2.679,2.679,0,0,1-2.716-2.107V4.19a2.666,2.666,0,0,1,2.716-2.082A2.454,2.454,0,0,1,60.955,4.19V5.244h2.867V4.19a4.426,4.426,0,0,0-.631-2.036C62.359.766,60.468,0,58.377,0s-4.089.766-4.92,2.154a4.426,4.426,0,0,0-.631,2.036v8.381a4.422,4.422,0,0,0,.631,2.036c.831,1.389,2.831,2.156,4.92,2.156" transform="translate(19.281 0)"/><path d="M35.674,3.062a1.531,1.531,0,1,0-1.531-1.531,1.53,1.53,0,0,0,1.531,1.531" transform="translate(12.215)"/><rect width="2.781" height="12.618" transform="translate(46.497 4.145)"/></g><text transform="translate(-953.54 -322.049)" font-size="6" font-family="Helvetica"><tspan x="0" y="0">©</tspan></text><text transform="translate(-1005 -321.733)" font-size="7" font-family="HiraginoSans-W4, Hiragino Sans" letter-spacing="0.05em"><tspan x="0" y="0">2022年5月号</tspan></text></g></svg>